P2
3 7
255
40 50 66
90 240 233
18 83 22
99 55 0
255 166 71
8 201 194
19 178 219
